<svg width="20" height="17" viewBox="0 0 20 17" fill="none" xmlns="http://www.w3.org/2000/svg">
<g style="mix-blend-mode:exclusion">
<path d="M19.4509 2.22548C19.1891 4.92446 18.0548 11.484 17.4789 14.5075C17.2346 15.7887 16.746 16.2157 16.2922 16.267C15.28 16.3523 14.5122 15.6178 13.5349 14.9858C11.9991 13.995 11.1265 13.3801 9.6432 12.4234C7.91543 11.3132 9.03233 10.6982 10.0271 9.70746C10.2888 9.45119 14.7564 5.4711 14.8437 5.11231C14.8558 5.05802 14.8542 5.00159 14.839 4.94802C14.8238 4.89445 14.7954 4.84529 14.7564 4.80483C14.6518 4.71951 14.5122 4.75362 14.39 4.77072C14.233 4.80483 11.7897 6.39353 7.02534 9.53661C6.32728 9.99783 5.69908 10.237 5.14063 10.2199C4.51232 10.2028 3.32567 9.8782 2.43568 9.58782C1.33618 9.24624 0.481058 9.05829 0.550864 8.46044C0.585761 8.15297 1.02206 7.84549 1.84225 7.52091C6.93815 5.35147 10.3237 3.91661 12.0166 3.23334C16.8681 1.25184 17.8629 0.910156 18.526 0.910156C18.6656 0.910156 18.9972 0.944366 19.2066 1.11511C19.3812 1.25184 19.4335 1.43969 19.4509 1.57632C19.4335 1.67885 19.4684 1.98632 19.4509 2.22548Z" fill="white"/>
</g>
</svg>
