<svg xmlns="http://www.w3.org/2000/svg" width="57" height="23" viewBox="0 0 57 23" fill="none">
  <g clip-path="url(#clip0_1850_420)">
    <path fill-rule="evenodd" clip-rule="evenodd" d="M0 22.6817H5.64239V9.64865C8.26955 14.1412 10.8336 18.5257 13.4502 23.0001C16.0513 18.5674 18.6679 14.0949 21.2703 9.64601V22.6817H25.5593H26.9127H42.2084L39.5874 18.3289H26.9128V13.4816H36.8982L34.2771 9.1288H26.9128V4.3974H31.6708L29.0498 0.0445954C26.4571 0.0445954 23.9 0.000183105 21.2705 0.000183105L13.4565 13.7552L5.64253 0.000183105H0.000148873V22.6817L0 22.6817ZM57 0.0445456C47.9575 0.0445456 39.0897 0.0445456 30.0456 0.0445456L32.6667 4.39735H39.0961H40.8198V18.3289L43.6367 23.0001L46.4621 18.3289V4.39735H47.9494H54.3789L56.9999 0.0445456H57Z" fill="white"/>
  </g>
  <defs>
    <clipPath id="clip0_1850_420">
      <rect width="57" height="23" fill="white"/>
    </clipPath>
  </defs>
</svg>