<?xml version="1.0" encoding="utf-8"?><svg viewBox="0 0 130 23" xmlns="http://www.w3.org/2000/svg" xmlns:xlink="http://www.w3.org/1999/xlink"><style>:root>svg{display:none}:root>svg:target{display:block}</style><svg fill="none" viewBox="0 0 130 19" id="54_agengy" xmlns="http://www.w3.org/2000/svg"><g style="mix-blend-mode:exclusion" fill="#fff"><path d="M112.438.723h4.851l3.93 6.744 3.979-6.744h4.803l-6.792 10.795v6.793h-4.149V11.47L112.438.723Z"/><path d="M110.53 11.759h4.075c-.655 4.075-3.93 6.865-8.369 6.865-5.483 0-8.806-3.493-8.806-9.121 0-5.556 3.42-9.073 8.927-9.073 4.391 0 7.545 2.862 8.127 6.865h-4.075c-.461-2.402-2.232-3.445-4.197-3.445-2.451 0-4.391 2.062-4.391 5.653 0 3.711 1.916 5.7 4.439 5.7 1.82 0 3.736-.776 4.27-3.444ZM96.772 18.31h-5.046l-7.06-12.129v12.13h-4.002V.723h5.046l7.06 12.13V.722h4.002V18.31ZM66.031 18.31V.724H79.52v3.639h-9.34v3.08h8.831v3.664h-8.83v3.542h9.34v3.663H66.03ZM56.398.43c3.906 0 7.035 1.965 7.884 5.798h-4.075c-.389-1.213-1.602-2.378-3.858-2.378-2.547 0-4.536 1.893-4.536 5.604 0 3.712 1.82 5.75 4.61 5.75 1.916 0 3.905-.728 3.905-2.96v-.34h-4.245V8.508h8.393v9.8h-3.178l-.121-1.94c-1.14 1.553-2.863 2.256-5.386 2.256-5.167 0-8.37-3.542-8.37-9.17 0-5.555 3.64-9.024 8.977-9.024ZM31.313 18.31 37.934.724h4.561l6.647 17.588h-4.512l-1.068-3.13h-6.792l-1.043 3.13h-4.416ZM40.19 5.115l-2.28 6.695h4.537L40.19 5.114ZM22.532 5.938l-4.172 5.143h4.172V5.938Zm6.43 5.143V14.6h-2.427v3.712h-4.003v-3.712H13.97v-3.13L22.823.724h3.712V11.08h2.426Z"/><path d="M7.06 15.666c1.77 0 3.105-1.115 3.105-3.153 0-2.16-1.48-3.202-3.033-3.202-1.383 0-2.401.606-3.008 1.746l-3.663-.364L1.698.723h11.766v3.25H5.022l-.413 3.3c.85-.583 2.256-.922 3.494-.922 3.178 0 6.186 2.062 6.186 6.138 0 4.027-3.324 6.137-7.181 6.137-3.639 0-6.526-1.99-7.108-5.725h3.857c.364 2.038 1.65 2.765 3.202 2.765Z"/></g></svg><svg fill="none" viewBox="0 0 23 23" id="ArrowRight" xmlns="http://www.w3.org/2000/svg"><path d="M3.594 11.5h15.812M12.938 5.031l6.468 6.469-6.468 6.469" stroke="#fff" stroke-width="2" stroke-linecap="round" stroke-linejoin="round"/></svg></svg>